{
    "asset" : {
        "generator" : "Khronos glTF Blender I/O v1.8.19",
        "version" : "2.0"
    },
    "scene" : 0,
    "scenes" : [
        {
            "extras" : {
                "ats_settings" : {
                    "num_tiles" : [
                        15,
                        9
                    ],
                    "threads_error" : 0,
                    "prev_engine" : "BLENDER_RENDER",
                    "prev_device" : "",
                    "prev_border" : 0,
                    "prev_threads" : 4,
                    "prev_choice" : "64",
                    "prev_res" : [
                        960,
                        540
                    ],
                    "prev_border_res" : [
                        0.0,
                        0.0,
                        1.0,
                        1.0
                    ],
                    "prev_actual_tile_size" : [
                        64,
                        60
                    ],
                    "first_run" : 0
                }
            },
            "name" : "Scene",
            "nodes" : [
                24,
                26
            ]
        }
    ],
    "nodes" : [
        {
            "name" : "Head",
            "rotation" : [
                2.2420775429197073e-44,
                0,
                1.577722374679312e-30,
                1
            ],
            "translation" : [
                -3.076557530361946e-29,
                0.18109989166259766,
                0
            ]
        },
        {
            "children" : [
                0
            ],
            "name" : "Spine.3",
            "rotation" : [
                1.3234891378570253e-23,
                -5.960465898624534e-08,
                -2.220446049250313e-16,
                1
            ],
            "translation" : [
                5.293955920339377e-23,
                0.7625255584716797,
                1.49719690872098e-22
            ]
        },
        {
            "name" : "Hand.L",
            "rotation" : [
                -0.012173320166766644,
                -0.021084915846586227,
                -0.03666669875383377,
                0.9990309476852417
            ],
            "scale" : [
                0.9999998807907104,
                0.9999999403953552,
                1.0000001192092896
            ],
            "translation" : [
                1.0833671737486839e-08,
                0.9102497696876526,
                -1.2449839914552285e-07
            ]
        },
        {
            "children" : [
                2
            ],
            "name" : "ArmLower.L",
            "rotation" : [
                0.2656014859676361,
                0.0164017491042614,
                0.0642625018954277,
                0.9617990255355835
            ],
            "scale" : [
                0.9999998807907104,
                0.9999997615814209,
                0.9999998211860657
            ],
            "translation" : [
                1.091087113991307e-07,
                0.9803408980369568,
                -9.516656973573845e-08
            ]
        },
        {
            "children" : [
                3
            ],
            "name" : "Arm.L",
            "rotation" : [
                0.045109525322914124,
                0.023043392226099968,
                -0.41495218873023987,
                0.9084320664405823
            ],
            "scale" : [
                1.0000001192092896,
                1,
                0.9999998807907104
            ],
            "translation" : [
                1.5941918718453962e-07,
                0.650102436542511,
                3.749183008494583e-08
            ]
        },
        {
            "children" : [
                4
            ],
            "name" : "Shoulder.L",
            "rotation" : [
                -0.030700499191880226,
                0.0413350872695446,
                -0.7983227968215942,
                0.6000247001647949
            ],
            "scale" : [
                1.0000001192092896,
                1,
                1.0000001192092896
            ],
            "translation" : [
                1.3258730291454413e-07,
                0.7625260353088379,
                2.795914610942418e-10
            ]
        },
        {
            "name" : "Hand.R",
            "rotation" : [
                -0.012173349037766457,
                0.021084889769554138,
                0.03666674345731735,
                0.9990309476852417
            ],
            "scale" : [
                0.9999999403953552,
                1,
                1.0000001192092896
            ],
            "translation" : [
                -2.6302103606212768e-08,
                0.9102497100830078,
                8.669175599607115e-08
            ]
        },
        {
            "children" : [
                6
            ],
            "name" : "ArmLower.R",
            "rotation" : [
                0.2958361804485321,
                -0.022067435085773468,
                -0.09328566491603851,
                0.950416624546051
            ],
            "translation" : [
                -1.8762926856652484e-07,
                1.032957673072815,
                5.029141902923584e-08
            ]
        },
        {
            "children" : [
                7
            ],
            "name" : "Arm.R",
            "rotation" : [
                -0.030211035162210464,
                -0.01713225431740284,
                0.4929903745651245,
                0.8693413138389587
            ],
            "scale" : [
                0.9999999403953552,
                0.9999998807907104,
                1
            ],
            "translation" : [
                -5.247197236712964e-07,
                0.6656045913696289,
                6.927791673660977e-14
            ]
        },
        {
            "children" : [
                8
            ],
            "name" : "Shoulder.R",
            "rotation" : [
                1.744586342056209e-08,
                -1.0633460334474876e-07,
                0.763460099697113,
                0.6458550095558167
            ],
            "translation" : [
                -6.240482377853754e-21,
                0.7625255584716797,
                5.684341886080802e-14
            ]
        },
        {
            "children" : [
                1,
                5,
                9
            ],
            "name" : "Spine.2",
            "rotation" : [
                0.05433487892150879,
                8.18353242948433e-08,
                2.0241324172332043e-09,
                0.9985227584838867
            ],
            "translation" : [
                -6.621962762406639e-16,
                0.5591740608215332,
                2.6099028715975692e-08
            ]
        },
        {
            "children" : [
                10
            ],
            "name" : "Spine.1",
            "rotation" : [
                -0.10265783965587616,
                -5.3894385843022974e-08,
                -9.72903868579067e-10,
                0.9947168231010437
            ],
            "scale" : [
                1,
                0.9999999403953552,
                0.9999999403953552
            ],
            "translation" : [
                -4.440892098500626e-16,
                0.626794695854187,
                3.725290298461914e-09
            ]
        },
        {
            "name" : "Foot.L",
            "rotation" : [
                0.5577861666679382,
                -0.04587923362851143,
                -0.10346046090126038,
                0.8222321271896362
            ],
            "scale" : [
                1.0000017881393433,
                1.0000001192092896,
                1.0000009536743164
            ],
            "translation" : [
                -1.865272203360746e-08,
                1.285707712173462,
                -8.09700679837988e-08
            ]
        },
        {
            "children" : [
                12
            ],
            "name" : "LegLower.L",
            "rotation" : [
                -0.0578552708029747,
                0.0006958004669286311,
                -0.016914725303649902,
                0.9981814622879028
            ],
            "scale" : [
                0.9999996423721313,
                0.9999995827674866,
                0.9999998807907104
            ],
            "translation" : [
                1.1472730543360399e-09,
                1.420249342918396,
                3.3587896908215953e-09
            ]
        },
        {
            "children" : [
                13
            ],
            "name" : "LegUpper.L",
            "rotation" : [
                -0.014350107870995998,
                -0.05739883333444595,
                -0.9898597598075867,
                0.12914054095745087
            ],
            "scale" : [
                1.0000066757202148,
                1.000000238418579,
                1.000001311302185
            ],
            "translation" : [
                0.29786166548728943,
                0.14274144172668457,
                -0.013882912695407867
            ]
        },
        {
            "name" : "Foot.R",
            "rotation" : [
                0.5577878355979919,
                0.04587891325354576,
                0.10346024483442307,
                0.8222310543060303
            ],
            "scale" : [
                1.0000016689300537,
                1,
                1.0000008344650269
            ],
            "translation" : [
                -8.812644836098116e-08,
                1.2857075929641724,
                -1.011610351042691e-08
            ]
        },
        {
            "children" : [
                15
            ],
            "name" : "LegLower.R",
            "rotation" : [
                -0.05785880237817764,
                -0.0006958235171623528,
                0.016915760934352875,
                0.9981812238693237
            ],
            "scale" : [
                0.9999999403953552,
                1.0000004768371582,
                1.0000001192092896
            ],
            "translation" : [
                2.1444721198804473e-07,
                1.4202489852905273,
                2.1103916836295866e-08
            ]
        },
        {
            "children" : [
                16
            ],
            "name" : "LegUpper.R",
            "rotation" : [
                -0.014349819160997868,
                0.05740044265985489,
                0.9898595809936523,
                0.12914112210273743
            ],
            "scale" : [
                1.000006079673767,
                1.0000003576278687,
                1.0000011920928955
            ],
            "translation" : [
                -0.297861784696579,
                0.14274147152900696,
                -0.013882952742278576
            ]
        },
        {
            "children" : [
                11,
                14,
                17
            ],
            "name" : "Root",
            "rotation" : [
                0.04845836013555527,
                3.1791508092737786e-08,
                1.5423763377597766e-09,
                0.9988253116607666
            ],
            "translation" : [
                0,
                2.757099151611328,
                0
            ]
        },
        {
            "name" : "IKLegPole.L",
            "rotation" : [
                0.09140623360872269,
                -0.7011739611625671,
                -0.7011739611625671,
                0.09140623360872269
            ],
            "translation" : [
                0.6619147658348083,
                1.5279234647750854,
                1.1993893384933472
            ]
        },
        {
            "name" : "IKTarget.L",
            "rotation" : [
                -0.07952331006526947,
                0.7026208639144897,
                -0.7026208639144897,
                0.07952331006526947
            ],
            "scale" : [
                0.9999999403953552,
                1,
                0.9999999403953552
            ],
            "translation" : [
                0.9478619694709778,
                0.2808759808540344,
                -0.10325902700424194
            ]
        },
        {
            "name" : "IKLegPole.R",
            "rotation" : [
                0.09140623360872269,
                0.7011739611625671,
                0.7011739611625671,
                0.09140623360872269
            ],
            "translation" : [
                -0.6619147658348083,
                1.5279234647750854,
                1.1993893384933472
            ]
        },
        {
            "name" : "IKTarget.R",
            "rotation" : [
                -0.07952331006526947,
                -0.7026208639144897,
                0.7026208639144897,
                0.07952331006526947
            ],
            "scale" : [
                0.9999999403953552,
                1,
                0.9999999403953552
            ],
            "translation" : [
                -0.9478619694709778,
                0.2808759808540344,
                -0.10325902700424194
            ]
        },
        {
            "extras" : {
                "ant_landscape" : {}
            },
            "mesh" : 0,
            "name" : "BASE_Low Poly Man.001",
            "skin" : 0
        },
        {
            "children" : [
                23,
                18,
                19,
                20,
                21,
                22
            ],
            "name" : "Armature"
        },
        {
            "camera" : 0,
            "name" : "Camera_Orientation",
            "rotation" : [
                -0.7071067690849304,
                0,
                0,
                0.7071067690849304
            ]
        },
        {
            "children" : [
                25
            ],
            "name" : "Camera",
            "rotation" : [
                0.623876690864563,
                0.0011362802470102906,
                -0.0009069407824426889,
                0.7815214395523071
            ],
            "translation" : [
                0,
                6.298970699310303,
                6.096757888793945
            ]
        }
    ],
    "cameras" : [
        {
            "name" : "Camera",
            "perspective" : {
                "aspectRatio" : 1.7777777777777777,
                "yfov" : 0.39959648408210363,
                "zfar" : 1000,
                "znear" : 0.10000000149011612
            },
            "type" : "perspective"
        }
    ],
    "animations" : [
        {
            "channels" : [
                {
                    "sampler" : 0,
                    "target" : {
                        "node" : 26,
                        "path" : "translation"
                    }
                },
                {
                    "sampler" : 1,
                    "target" : {
                        "node" : 26,
                        "path" : "rotation"
                    }
                }
            ],
            "name" : "CameraAction1",
            "samplers" : [
                {
                    "input" : 6,
                    "interpolation" : "LINEAR",
                    "output" : 7
                },
                {
                    "input" : 6,
                    "interpolation" : "LINEAR",
                    "output" : 8
                }
            ]
        }
    ],
    "materials" : [
        {
            "doubleSided" : true,
            "name" : "Acciaio",
            "pbrMetallicRoughness" : {
                "baseColorFactor" : [
                    0.5795210003852844,
                    0.8000000715255737,
                    0.8000000715255737,
                    1
                ],
                "roughnessFactor" : 0.5
            }
        }
    ],
    "meshes" : [
        {
            "name" : "Cube.002",
            "primitives" : [
                {
                    "attributes" : {
                        "POSITION" : 0,
                        "NORMAL" : 1,
                        "JOINTS_0" : 2,
                        "WEIGHTS_0" : 3
                    },
                    "indices" : 4,
                    "material" : 0
                }
            ]
        }
    ],
    "skins" : [
        {
            "inverseBindMatrices" : 5,
            "joints" : [
                18,
                11,
                10,
                1,
                0,
                5,
                4,
                3,
                2,
                9,
                8,
                7,
                6,
                14,
                13,
                12,
                17,
                16,
                15,
                19,
                20,
                21,
                22
            ],
            "name" : "Armature"
        }
    ],
    "accessors" : [
        {
            "bufferView" : 0,
            "componentType" : 5126,
            "count" : 956,
            "max" : [
                1.6810498237609863,
                5.7175774574279785,
                0.7433556318283081
            ],
            "min" : [
                -1.6810498237609863,
                -0.028700586408376694,
                -0.31471118330955505
            ],
            "type" : "VEC3"
        },
        {
            "bufferView" : 1,
            "componentType" : 5126,
            "count" : 956,
            "type" : "VEC3"
        },
        {
            "bufferView" : 2,
            "componentType" : 5121,
            "count" : 956,
            "type" : "VEC4"
        },
        {
            "bufferView" : 3,
            "componentType" : 5126,
            "count" : 956,
            "type" : "VEC4"
        },
        {
            "bufferView" : 4,
            "componentType" : 5123,
            "count" : 1416,
            "type" : "SCALAR"
        },
        {
            "bufferView" : 5,
            "componentType" : 5126,
            "count" : 23,
            "type" : "MAT4"
        },
        {
            "bufferView" : 6,
            "componentType" : 5126,
            "count" : 40,
            "max" : [
                1.6666666666666667
            ],
            "min" : [
                0.041666666666666664
            ],
            "type" : "SCALAR"
        },
        {
            "bufferView" : 7,
            "componentType" : 5126,
            "count" : 40,
            "type" : "VEC3"
        },
        {
            "bufferView" : 8,
            "componentType" : 5126,
            "count" : 40,
            "type" : "VEC4"
        }
    ],
    "bufferViews" : [
        {
            "buffer" : 0,
            "byteLength" : 11472,
            "byteOffset" : 0
        },
        {
            "buffer" : 0,
            "byteLength" : 11472,
            "byteOffset" : 11472
        },
        {
            "buffer" : 0,
            "byteLength" : 3824,
            "byteOffset" : 22944
        },
        {
            "buffer" : 0,
            "byteLength" : 15296,
            "byteOffset" : 26768
        },
        {
            "buffer" : 0,
            "byteLength" : 2832,
            "byteOffset" : 42064
        },
        {
            "buffer" : 0,
            "byteLength" : 1472,
            "byteOffset" : 44896
        },
        {
            "buffer" : 0,
            "byteLength" : 160,
            "byteOffset" : 46368
        },
        {
            "buffer" : 0,
            "byteLength" : 480,
            "byteOffset" : 46528
        },
        {
            "buffer" : 0,
            "byteLength" : 640,
            "byteOffset" : 47008
        }
    ],
    "buffers" : [
        {
            "byteLength" : 47648,
            "uri" : "data:application/octet-stream;base64,"
        }
    ]
}
